<svg version="1.1" xmlns="http://www.w3.org/2000/svg" viewBox="0 0 24 24" xmlns:xlink="http://www.w3.org/1999/xlink" enable-background="new 0 0 512 512" width="24" height="24"><g><g><path d="M3.755 19.013c0.164 0.112 0.797 0.427 1.331 -0.248l3.619 -5.287 3.83 3.694a0.946 0.946 0 0 0 0.759 0.262 0.971 0.971 0 0 0 0.694 -0.403l6.351 -9.109 0.23 3.047c0.056 0.773 0.783 0.9 1.027 0.881a0.956 0.956 0 0 0 0.881 -1.027l-0.403 -5.357a0.953 0.953 0 0 0 -1.027 -0.881l-5.357 0.403a0.953 0.953 0 0 0 -0.881 1.027 0.953 0.953 0 0 0 1.027 0.881l3.047 -0.23 -5.822 8.344 -3.839 -3.703a0.935 0.935 0 0 0 -0.759 -0.262 0.952 0.952 0 0 0 -0.694 0.413L3.506 17.684a0.957 0.957 0 0 0 0.248 1.331z"/><path d="M22.528 21.572H2.428V1.472c0 -0.53 -0.427 -0.956 -0.956 -0.956s-0.956 0.425 -0.956 0.956V22.527c0 0.53 0.427 0.956 0.956 0.956h21.056a0.953 0.953 0 0 0 0.956 -0.956 0.953 0.953 0 0 0 -0.956 -0.956z"/></g></g></svg>